<svg width="358" height="339" viewBox="0 0 358 339" fill="none" xmlns="http://www.w3.org/2000/svg">
<path d="M10 0.5H348C353.247 0.5 357.5 4.75329 357.5 10V288C357.5 293.247 353.247 297.5 348 297.5H9.99999C4.75329 297.5 0.5 293.247 0.5 288V10C0.5 4.7533 4.75329 0.5 10 0.5Z" fill="#D9D9D9" stroke="black"/>
<rect x="20" y="43" width="80" height="80" rx="10" fill="#FFFC00"/>
<rect x="252" y="43" width="80" height="80" rx="10" fill="#4FE8F2"/>
<rect x="136" y="43" width="80" height="80" rx="10" fill="black"/>
<path d="M35.6562 140.977L35.1484 143.633H37.3594V144.625H34.9531L34.2891 148H33.2344L33.8984 144.625H31.5156L30.875 148H29.8359L30.4531 144.625H28.4062V143.633H30.6484L31.1719 140.977H29V140H31.3516L32 136.578H33.0703L32.4219 140H34.8203L35.4688 136.578H36.5L35.8516 140H37.9219V140.977H35.6562ZM31.7031 143.633H34.0859L34.6016 140.977H32.2188L31.7031 143.633ZM41.2344 148H39.9062V136.578H46.2656V137.75H41.2344V141.938H45.9609V143.102H41.2344V148ZM49.5 148H48.1719V136.578H54.5312V137.75H49.5V141.938H54.2266V143.102H49.5V148ZM57.7656 148H56.4375V136.578H62.7969V137.75H57.7656V141.938H62.4922V143.102H57.7656V148ZM69.5859 137.586C68.9557 137.586 68.388 137.695 67.8828 137.914C67.3828 138.128 66.9557 138.44 66.6016 138.852C66.2526 139.258 65.9844 139.75 65.7969 140.328C65.6094 140.906 65.5156 141.557 65.5156 142.281C65.5156 143.24 65.6641 144.073 65.9609 144.781C66.263 145.484 66.7109 146.029 67.3047 146.414C67.9036 146.799 68.651 146.992 69.5469 146.992C70.0573 146.992 70.5365 146.951 70.9844 146.867C71.4375 146.779 71.8776 146.669 72.3047 146.539V147.695C71.888 147.852 71.4505 147.966 70.9922 148.039C70.5339 148.117 69.9896 148.156 69.3594 148.156C68.1979 148.156 67.2266 147.917 66.4453 147.438C65.6693 146.953 65.0859 146.271 64.6953 145.391C64.3099 144.51 64.1172 143.471 64.1172 142.273C64.1172 141.409 64.237 140.62 64.4766 139.906C64.7214 139.188 65.0755 138.568 65.5391 138.047C66.0078 137.526 66.5807 137.125 67.2578 136.844C67.9401 136.557 68.7214 136.414 69.6016 136.414C70.1797 136.414 70.737 136.471 71.2734 136.586C71.8099 136.701 72.2943 136.865 72.7266 137.078L72.1953 138.203C71.8307 138.036 71.4297 137.893 70.9922 137.773C70.5599 137.648 70.0911 137.586 69.5859 137.586ZM81.5547 142.273C81.5547 143.201 81.4844 144.029 81.3438 144.758C81.2031 145.487 80.9818 146.104 80.6797 146.609C80.3776 147.115 79.987 147.5 79.5078 147.766C79.0286 148.026 78.4531 148.156 77.7812 148.156C76.9323 148.156 76.2292 147.924 75.6719 147.461C75.1198 146.997 74.7057 146.328 74.4297 145.453C74.1589 144.573 74.0234 143.513 74.0234 142.273C74.0234 141.055 74.1458 140.008 74.3906 139.133C74.6406 138.253 75.0417 137.578 75.5938 137.109C76.1458 136.635 76.875 136.398 77.7812 136.398C78.6406 136.398 79.349 136.633 79.9062 137.102C80.4635 137.565 80.8776 138.237 81.1484 139.117C81.4193 139.992 81.5547 141.044 81.5547 142.273ZM75.3281 142.273C75.3281 143.336 75.4089 144.221 75.5703 144.93C75.7318 145.638 75.9922 146.169 76.3516 146.523C76.7161 146.872 77.1927 147.047 77.7812 147.047C78.3698 147.047 78.8438 146.872 79.2031 146.523C79.5677 146.174 79.8307 145.646 79.9922 144.938C80.1589 144.229 80.2422 143.341 80.2422 142.273C80.2422 141.227 80.1615 140.352 80 139.648C79.8385 138.94 79.5781 138.409 79.2188 138.055C78.8594 137.695 78.3802 137.516 77.7812 137.516C77.1823 137.516 76.7031 137.695 76.3438 138.055C75.9844 138.409 75.724 138.94 75.5625 139.648C75.4062 140.352 75.3281 141.227 75.3281 142.273ZM90.7109 142.273C90.7109 143.201 90.6406 144.029 90.5 144.758C90.3594 145.487 90.138 146.104 89.8359 146.609C89.5339 147.115 89.1432 147.5 88.6641 147.766C88.1849 148.026 87.6094 148.156 86.9375 148.156C86.0885 148.156 85.3854 147.924 84.8281 147.461C84.276 146.997 83.862 146.328 83.5859 145.453C83.3151 144.573 83.1797 143.513 83.1797 142.273C83.1797 141.055 83.3021 140.008 83.5469 139.133C83.7969 138.253 84.1979 137.578 84.75 137.109C85.3021 136.635 86.0312 136.398 86.9375 136.398C87.7969 136.398 88.5052 136.633 89.0625 137.102C89.6198 137.565 90.0339 138.237 90.3047 139.117C90.5755 139.992 90.7109 141.044 90.7109 142.273ZM84.4844 142.273C84.4844 143.336 84.5651 144.221 84.7266 144.93C84.888 145.638 85.1484 146.169 85.5078 146.523C85.8724 146.872 86.349 147.047 86.9375 147.047C87.526 147.047 88 146.872 88.3594 146.523C88.724 146.174 88.987 145.646 89.1484 144.938C89.3151 144.229 89.3984 143.341 89.3984 142.273C89.3984 141.227 89.3177 140.352 89.1562 139.648C88.9948 138.94 88.7344 138.409 88.375 138.055C88.0156 137.695 87.5365 137.516 86.9375 137.516C86.3385 137.516 85.8594 137.695 85.5 138.055C85.1406 138.409 84.8802 138.94 84.7188 139.648C84.5625 140.352 84.4844 141.227 84.4844 142.273Z" fill="black"/>
<path d="M152.959 13.5098C152.275 13.5098 151.663 13.6335 151.123 13.8809C150.589 14.1283 150.137 14.4863 149.766 14.9551C149.395 15.4173 149.111 15.9805 148.916 16.6445C148.721 17.3021 148.623 18.0443 148.623 18.8711C148.623 19.9779 148.779 20.9316 149.092 21.7324C149.404 22.5267 149.88 23.1387 150.518 23.5684C151.156 23.9915 151.963 24.2031 152.939 24.2031C153.545 24.2031 154.134 24.1445 154.707 24.0273C155.28 23.9102 155.872 23.7507 156.484 23.5488V25.541C155.905 25.7689 155.319 25.9349 154.727 26.0391C154.134 26.1432 153.451 26.1953 152.676 26.1953C151.217 26.1953 150.007 25.8926 149.043 25.2871C148.086 24.6816 147.37 23.8288 146.895 22.7285C146.426 21.6283 146.191 20.3392 146.191 18.8613C146.191 17.7806 146.341 16.791 146.641 15.8926C146.94 14.9941 147.376 14.2194 147.949 13.5684C148.522 12.9108 149.229 12.4062 150.068 12.0547C150.915 11.6966 151.882 11.5176 152.969 11.5176C153.685 11.5176 154.388 11.599 155.078 11.7617C155.775 11.918 156.419 12.1426 157.012 12.4355L156.191 14.3691C155.697 14.1348 155.179 13.9329 154.639 13.7637C154.098 13.5944 153.538 13.5098 152.959 13.5098ZM168.887 20.5703C168.887 21.4688 168.77 22.2663 168.535 22.9629C168.301 23.6595 167.959 24.2487 167.51 24.7305C167.061 25.2057 166.52 25.5703 165.889 25.8242C165.257 26.0716 164.544 26.1953 163.75 26.1953C163.008 26.1953 162.327 26.0716 161.709 25.8242C161.09 25.5703 160.553 25.2057 160.098 24.7305C159.648 24.2487 159.3 23.6595 159.053 22.9629C158.805 22.2663 158.682 21.4688 158.682 20.5703C158.682 19.3789 158.887 18.3698 159.297 17.543C159.714 16.7096 160.306 16.0749 161.074 15.6387C161.842 15.2025 162.757 14.9844 163.818 14.9844C164.814 14.9844 165.693 15.2025 166.455 15.6387C167.217 16.0749 167.812 16.7096 168.242 17.543C168.672 18.3763 168.887 19.3854 168.887 20.5703ZM161.045 20.5703C161.045 21.3581 161.139 22.0319 161.328 22.5918C161.523 23.1517 161.823 23.5814 162.227 23.8809C162.63 24.1738 163.151 24.3203 163.789 24.3203C164.427 24.3203 164.948 24.1738 165.352 23.8809C165.755 23.5814 166.051 23.1517 166.24 22.5918C166.429 22.0319 166.523 21.3581 166.523 20.5703C166.523 19.7826 166.429 19.1152 166.24 18.5684C166.051 18.015 165.755 17.5951 165.352 17.3086C164.948 17.0156 164.424 16.8691 163.779 16.8691C162.829 16.8691 162.135 17.1882 161.699 17.8262C161.263 18.4642 161.045 19.3789 161.045 20.5703ZM173.828 26H171.523V10.8047H173.828V26ZM186.68 20.5703C186.68 21.4688 186.562 22.2663 186.328 22.9629C186.094 23.6595 185.752 24.2487 185.303 24.7305C184.854 25.2057 184.313 25.5703 183.682 25.8242C183.05 26.0716 182.337 26.1953 181.543 26.1953C180.801 26.1953 180.12 26.0716 179.502 25.8242C178.883 25.5703 178.346 25.2057 177.891 24.7305C177.441 24.2487 177.093 23.6595 176.846 22.9629C176.598 22.2663 176.475 21.4688 176.475 20.5703C176.475 19.3789 176.68 18.3698 177.09 17.543C177.507 16.7096 178.099 16.0749 178.867 15.6387C179.635 15.2025 180.55 14.9844 181.611 14.9844C182.607 14.9844 183.486 15.2025 184.248 15.6387C185.01 16.0749 185.605 16.7096 186.035 17.543C186.465 18.3763 186.68 19.3854 186.68 20.5703ZM178.838 20.5703C178.838 21.3581 178.932 22.0319 179.121 22.5918C179.316 23.1517 179.616 23.5814 180.02 23.8809C180.423 24.1738 180.944 24.3203 181.582 24.3203C182.22 24.3203 182.741 24.1738 183.145 23.8809C183.548 23.5814 183.844 23.1517 184.033 22.5918C184.222 22.0319 184.316 21.3581 184.316 20.5703C184.316 19.7826 184.222 19.1152 184.033 18.5684C183.844 18.015 183.548 17.5951 183.145 17.3086C182.741 17.0156 182.217 16.8691 181.572 16.8691C180.622 16.8691 179.928 17.1882 179.492 17.8262C179.056 18.4642 178.838 19.3789 178.838 20.5703ZM194.795 14.9844C194.977 14.9844 195.176 14.9941 195.391 15.0137C195.605 15.0332 195.791 15.0592 195.947 15.0918L195.732 17.2402C195.596 17.2012 195.426 17.1719 195.225 17.1523C195.029 17.1328 194.854 17.123 194.697 17.123C194.287 17.123 193.896 17.1914 193.525 17.3281C193.154 17.4583 192.826 17.6602 192.539 17.9336C192.253 18.2005 192.028 18.5358 191.865 18.9395C191.702 19.3431 191.621 19.8118 191.621 20.3457V26H189.316V15.1895H191.113L191.426 17.0938H191.533C191.748 16.7096 192.015 16.3581 192.334 16.0391C192.653 15.7201 193.018 15.4661 193.428 15.2773C193.844 15.082 194.3 14.9844 194.795 14.9844ZM205.215 22.9141C205.215 23.6237 205.042 24.2227 204.697 24.7109C204.352 25.1992 203.848 25.5703 203.184 25.8242C202.526 26.0716 201.719 26.1953 200.762 26.1953C200.007 26.1953 199.355 26.14 198.809 26.0293C198.268 25.9251 197.757 25.7624 197.275 25.541V23.5586C197.79 23.7995 198.366 24.0078 199.004 24.1836C199.648 24.3594 200.257 24.4473 200.83 24.4473C201.585 24.4473 202.129 24.3301 202.461 24.0957C202.793 23.8548 202.959 23.5358 202.959 23.1387C202.959 22.9043 202.891 22.696 202.754 22.5137C202.624 22.3249 202.376 22.1328 202.012 21.9375C201.654 21.7357 201.126 21.4948 200.43 21.2148C199.746 20.9414 199.17 20.668 198.701 20.3945C198.232 20.1211 197.878 19.7923 197.637 19.4082C197.396 19.0176 197.275 18.5195 197.275 17.9141C197.275 16.957 197.653 16.2311 198.408 15.7363C199.17 15.235 200.176 14.9844 201.426 14.9844C202.09 14.9844 202.715 15.0527 203.301 15.1895C203.893 15.3197 204.473 15.5117 205.039 15.7656L204.316 17.4941C203.828 17.2793 203.337 17.1035 202.842 16.9668C202.354 16.8236 201.855 16.752 201.348 16.752C200.755 16.752 200.303 16.8431 199.99 17.0254C199.684 17.2077 199.531 17.4681 199.531 17.8066C199.531 18.0605 199.606 18.2754 199.756 18.4512C199.906 18.627 200.163 18.8027 200.527 18.9785C200.898 19.1543 201.413 19.3724 202.07 19.6328C202.715 19.8802 203.271 20.1406 203.74 20.4141C204.215 20.681 204.58 21.0098 204.834 21.4004C205.088 21.791 205.215 22.2956 205.215 22.9141Z" fill="black"/>
<path d="M267.656 140.977L267.148 143.633H269.359V144.625H266.953L266.289 148H265.234L265.898 144.625H263.516L262.875 148H261.836L262.453 144.625H260.406V143.633H262.648L263.172 140.977H261V140H263.352L264 136.578H265.07L264.422 140H266.82L267.469 136.578H268.5L267.852 140H269.922V140.977H267.656ZM263.703 143.633H266.086L266.602 140.977H264.219L263.703 143.633ZM279.188 145.352H277.477V148H276.211V145.352H270.688V144.258L276.125 136.516H277.477V144.18H279.188V145.352ZM276.211 144.18V140.445C276.211 140.159 276.214 139.901 276.219 139.672C276.224 139.438 276.232 139.221 276.242 139.023C276.253 138.82 276.26 138.628 276.266 138.445C276.276 138.263 276.284 138.083 276.289 137.906H276.227C276.128 138.115 276.013 138.336 275.883 138.57C275.758 138.799 275.63 139.005 275.5 139.188L271.977 144.18H276.211ZM282.391 148H281.062V136.578H287.422V137.75H282.391V141.938H287.117V143.102H282.391V148ZM295.688 148H289.328V136.578H295.688V137.75H290.656V141.445H295.398V142.602H290.656V146.828H295.688V148ZM301.219 136.414C301.88 136.414 302.466 136.518 302.977 136.727C303.487 136.935 303.885 137.242 304.172 137.648C304.464 138.049 304.609 138.544 304.609 139.133C304.609 139.596 304.508 140.003 304.305 140.352C304.107 140.695 303.839 140.997 303.5 141.258C303.161 141.513 302.786 141.742 302.375 141.945C302.865 142.169 303.305 142.422 303.695 142.703C304.091 142.984 304.404 143.315 304.633 143.695C304.862 144.076 304.977 144.526 304.977 145.047C304.977 145.688 304.82 146.242 304.508 146.711C304.201 147.174 303.768 147.531 303.211 147.781C302.654 148.031 302 148.156 301.25 148.156C300.443 148.156 299.755 148.036 299.188 147.797C298.625 147.552 298.195 147.203 297.898 146.75C297.607 146.292 297.461 145.742 297.461 145.102C297.461 144.576 297.573 144.12 297.797 143.734C298.021 143.344 298.318 143.008 298.688 142.727C299.057 142.445 299.461 142.208 299.898 142.016C299.518 141.807 299.169 141.57 298.852 141.305C298.539 141.039 298.289 140.729 298.102 140.375C297.919 140.016 297.828 139.599 297.828 139.125C297.828 138.547 297.974 138.057 298.266 137.656C298.562 137.25 298.966 136.943 299.477 136.734C299.992 136.521 300.573 136.414 301.219 136.414ZM298.734 145.109C298.734 145.693 298.94 146.174 299.352 146.555C299.763 146.93 300.385 147.117 301.219 147.117C302.01 147.117 302.622 146.93 303.055 146.555C303.487 146.174 303.703 145.677 303.703 145.062C303.703 144.682 303.604 144.349 303.406 144.062C303.208 143.771 302.927 143.51 302.562 143.281C302.198 143.052 301.768 142.844 301.273 142.656L300.992 142.555C300.513 142.753 300.104 142.974 299.766 143.219C299.432 143.458 299.177 143.732 299 144.039C298.823 144.346 298.734 144.703 298.734 145.109ZM301.203 137.477C300.589 137.477 300.086 137.625 299.695 137.922C299.305 138.214 299.109 138.635 299.109 139.188C299.109 139.583 299.203 139.919 299.391 140.195C299.583 140.466 299.844 140.701 300.172 140.898C300.5 141.091 300.867 141.271 301.273 141.438C301.669 141.271 302.021 141.089 302.328 140.891C302.635 140.688 302.878 140.448 303.055 140.172C303.232 139.896 303.32 139.565 303.32 139.18C303.32 138.628 303.125 138.206 302.734 137.914C302.349 137.622 301.839 137.477 301.203 137.477ZM308.703 148H307.375V136.578H313.734V137.75H308.703V141.938H313.43V143.102H308.703V148ZM322.352 148H314.867V146.914L317.922 143.812C318.49 143.24 318.966 142.729 319.352 142.281C319.742 141.833 320.039 141.393 320.242 140.961C320.445 140.523 320.547 140.044 320.547 139.523C320.547 138.878 320.354 138.385 319.969 138.047C319.589 137.703 319.086 137.531 318.461 137.531C317.914 137.531 317.43 137.625 317.008 137.812C316.586 138 316.154 138.266 315.711 138.609L315.016 137.734C315.318 137.479 315.646 137.253 316 137.055C316.359 136.857 316.742 136.701 317.148 136.586C317.56 136.471 317.997 136.414 318.461 136.414C319.164 136.414 319.771 136.536 320.281 136.781C320.792 137.026 321.185 137.375 321.461 137.828C321.742 138.281 321.883 138.82 321.883 139.445C321.883 140.049 321.763 140.612 321.523 141.133C321.284 141.648 320.948 142.161 320.516 142.672C320.083 143.177 319.578 143.714 319 144.281L316.516 146.758V146.812H322.352V148Z" fill="black"/>
<path d="M150.656 140.977L150.148 143.633H152.359V144.625H149.953L149.289 148H148.234L148.898 144.625H146.516L145.875 148H144.836L145.453 144.625H143.406V143.633H145.648L146.172 140.977H144V140H146.352L147 136.578H148.07L147.422 140H149.82L150.469 136.578H151.5L150.852 140H152.922V140.977H150.656ZM146.703 143.633H149.086L149.602 140.977H147.219L146.703 143.633ZM161.68 142.273C161.68 143.201 161.609 144.029 161.469 144.758C161.328 145.487 161.107 146.104 160.805 146.609C160.503 147.115 160.112 147.5 159.633 147.766C159.154 148.026 158.578 148.156 157.906 148.156C157.057 148.156 156.354 147.924 155.797 147.461C155.245 146.997 154.831 146.328 154.555 145.453C154.284 144.573 154.148 143.513 154.148 142.273C154.148 141.055 154.271 140.008 154.516 139.133C154.766 138.253 155.167 137.578 155.719 137.109C156.271 136.635 157 136.398 157.906 136.398C158.766 136.398 159.474 136.633 160.031 137.102C160.589 137.565 161.003 138.237 161.273 139.117C161.544 139.992 161.68 141.044 161.68 142.273ZM155.453 142.273C155.453 143.336 155.534 144.221 155.695 144.93C155.857 145.638 156.117 146.169 156.477 146.523C156.841 146.872 157.318 147.047 157.906 147.047C158.495 147.047 158.969 146.872 159.328 146.523C159.693 146.174 159.956 145.646 160.117 144.938C160.284 144.229 160.367 143.341 160.367 142.273C160.367 141.227 160.286 140.352 160.125 139.648C159.964 138.94 159.703 138.409 159.344 138.055C158.984 137.695 158.505 137.516 157.906 137.516C157.307 137.516 156.828 137.695 156.469 138.055C156.109 138.409 155.849 138.94 155.688 139.648C155.531 140.352 155.453 141.227 155.453 142.273ZM170.836 142.273C170.836 143.201 170.766 144.029 170.625 144.758C170.484 145.487 170.263 146.104 169.961 146.609C169.659 147.115 169.268 147.5 168.789 147.766C168.31 148.026 167.734 148.156 167.062 148.156C166.214 148.156 165.51 147.924 164.953 147.461C164.401 146.997 163.987 146.328 163.711 145.453C163.44 144.573 163.305 143.513 163.305 142.273C163.305 141.055 163.427 140.008 163.672 139.133C163.922 138.253 164.323 137.578 164.875 137.109C165.427 136.635 166.156 136.398 167.062 136.398C167.922 136.398 168.63 136.633 169.188 137.102C169.745 137.565 170.159 138.237 170.43 139.117C170.701 139.992 170.836 141.044 170.836 142.273ZM164.609 142.273C164.609 143.336 164.69 144.221 164.852 144.93C165.013 145.638 165.273 146.169 165.633 146.523C165.997 146.872 166.474 147.047 167.062 147.047C167.651 147.047 168.125 146.872 168.484 146.523C168.849 146.174 169.112 145.646 169.273 144.938C169.44 144.229 169.523 143.341 169.523 142.273C169.523 141.227 169.443 140.352 169.281 139.648C169.12 138.94 168.859 138.409 168.5 138.055C168.141 137.695 167.661 137.516 167.062 137.516C166.464 137.516 165.984 137.695 165.625 138.055C165.266 138.409 165.005 138.94 164.844 139.648C164.688 140.352 164.609 141.227 164.609 142.273ZM179.992 142.273C179.992 143.201 179.922 144.029 179.781 144.758C179.641 145.487 179.419 146.104 179.117 146.609C178.815 147.115 178.424 147.5 177.945 147.766C177.466 148.026 176.891 148.156 176.219 148.156C175.37 148.156 174.667 147.924 174.109 147.461C173.557 146.997 173.143 146.328 172.867 145.453C172.596 144.573 172.461 143.513 172.461 142.273C172.461 141.055 172.583 140.008 172.828 139.133C173.078 138.253 173.479 137.578 174.031 137.109C174.583 136.635 175.312 136.398 176.219 136.398C177.078 136.398 177.786 136.633 178.344 137.102C178.901 137.565 179.315 138.237 179.586 139.117C179.857 139.992 179.992 141.044 179.992 142.273ZM173.766 142.273C173.766 143.336 173.846 144.221 174.008 144.93C174.169 145.638 174.43 146.169 174.789 146.523C175.154 146.872 175.63 147.047 176.219 147.047C176.807 147.047 177.281 146.872 177.641 146.523C178.005 146.174 178.268 145.646 178.43 144.938C178.596 144.229 178.68 143.341 178.68 142.273C178.68 141.227 178.599 140.352 178.438 139.648C178.276 138.94 178.016 138.409 177.656 138.055C177.297 137.695 176.818 137.516 176.219 137.516C175.62 137.516 175.141 137.695 174.781 138.055C174.422 138.409 174.161 138.94 174 139.648C173.844 140.352 173.766 141.227 173.766 142.273ZM189.148 142.273C189.148 143.201 189.078 144.029 188.938 144.758C188.797 145.487 188.576 146.104 188.273 146.609C187.971 147.115 187.581 147.5 187.102 147.766C186.622 148.026 186.047 148.156 185.375 148.156C184.526 148.156 183.823 147.924 183.266 147.461C182.714 146.997 182.299 146.328 182.023 145.453C181.753 144.573 181.617 143.513 181.617 142.273C181.617 141.055 181.74 140.008 181.984 139.133C182.234 138.253 182.635 137.578 183.188 137.109C183.74 136.635 184.469 136.398 185.375 136.398C186.234 136.398 186.943 136.633 187.5 137.102C188.057 137.565 188.471 138.237 188.742 139.117C189.013 139.992 189.148 141.044 189.148 142.273ZM182.922 142.273C182.922 143.336 183.003 144.221 183.164 144.93C183.326 145.638 183.586 146.169 183.945 146.523C184.31 146.872 184.786 147.047 185.375 147.047C185.964 147.047 186.438 146.872 186.797 146.523C187.161 146.174 187.424 145.646 187.586 144.938C187.753 144.229 187.836 143.341 187.836 142.273C187.836 141.227 187.755 140.352 187.594 139.648C187.432 138.94 187.172 138.409 186.812 138.055C186.453 137.695 185.974 137.516 185.375 137.516C184.776 137.516 184.297 137.695 183.938 138.055C183.578 138.409 183.318 138.94 183.156 139.648C183 140.352 182.922 141.227 182.922 142.273ZM198.305 142.273C198.305 143.201 198.234 144.029 198.094 144.758C197.953 145.487 197.732 146.104 197.43 146.609C197.128 147.115 196.737 147.5 196.258 147.766C195.779 148.026 195.203 148.156 194.531 148.156C193.682 148.156 192.979 147.924 192.422 147.461C191.87 146.997 191.456 146.328 191.18 145.453C190.909 144.573 190.773 143.513 190.773 142.273C190.773 141.055 190.896 140.008 191.141 139.133C191.391 138.253 191.792 137.578 192.344 137.109C192.896 136.635 193.625 136.398 194.531 136.398C195.391 136.398 196.099 136.633 196.656 137.102C197.214 137.565 197.628 138.237 197.898 139.117C198.169 139.992 198.305 141.044 198.305 142.273ZM192.078 142.273C192.078 143.336 192.159 144.221 192.32 144.93C192.482 145.638 192.742 146.169 193.102 146.523C193.466 146.872 193.943 147.047 194.531 147.047C195.12 147.047 195.594 146.872 195.953 146.523C196.318 146.174 196.581 145.646 196.742 144.938C196.909 144.229 196.992 143.341 196.992 142.273C196.992 141.227 196.911 140.352 196.75 139.648C196.589 138.94 196.328 138.409 195.969 138.055C195.609 137.695 195.13 137.516 194.531 137.516C193.932 137.516 193.453 137.695 193.094 138.055C192.734 138.409 192.474 138.94 192.312 139.648C192.156 140.352 192.078 141.227 192.078 142.273ZM207.461 142.273C207.461 143.201 207.391 144.029 207.25 144.758C207.109 145.487 206.888 146.104 206.586 146.609C206.284 147.115 205.893 147.5 205.414 147.766C204.935 148.026 204.359 148.156 203.688 148.156C202.839 148.156 202.135 147.924 201.578 147.461C201.026 146.997 200.612 146.328 200.336 145.453C200.065 144.573 199.93 143.513 199.93 142.273C199.93 141.055 200.052 140.008 200.297 139.133C200.547 138.253 200.948 137.578 201.5 137.109C202.052 136.635 202.781 136.398 203.688 136.398C204.547 136.398 205.255 136.633 205.812 137.102C206.37 137.565 206.784 138.237 207.055 139.117C207.326 139.992 207.461 141.044 207.461 142.273ZM201.234 142.273C201.234 143.336 201.315 144.221 201.477 144.93C201.638 145.638 201.898 146.169 202.258 146.523C202.622 146.872 203.099 147.047 203.688 147.047C204.276 147.047 204.75 146.872 205.109 146.523C205.474 146.174 205.737 145.646 205.898 144.938C206.065 144.229 206.148 143.341 206.148 142.273C206.148 141.227 206.068 140.352 205.906 139.648C205.745 138.94 205.484 138.409 205.125 138.055C204.766 137.695 204.286 137.516 203.688 137.516C203.089 137.516 202.609 137.695 202.25 138.055C201.891 138.409 201.63 138.94 201.469 139.648C201.312 140.352 201.234 141.227 201.234 142.273Z" fill="black"/>
<path d="M125.826 183H123.473V170.715H119.293V168.723H129.996V170.715H125.826V183ZM130.318 172.189H132.818L135.035 178.361C135.133 178.641 135.221 178.918 135.299 179.191C135.383 179.458 135.455 179.722 135.514 179.982C135.579 180.243 135.631 180.503 135.67 180.764H135.729C135.794 180.425 135.885 180.048 136.002 179.631C136.126 179.208 136.262 178.785 136.412 178.361L138.541 172.189H141.012L136.373 184.484C136.106 185.188 135.777 185.786 135.387 186.281C135.003 186.783 134.547 187.16 134.02 187.414C133.492 187.674 132.89 187.805 132.213 187.805C131.887 187.805 131.604 187.785 131.363 187.746C131.122 187.714 130.917 187.678 130.748 187.639V185.803C130.885 185.835 131.057 185.865 131.266 185.891C131.474 185.917 131.689 185.93 131.91 185.93C132.32 185.93 132.675 185.848 132.975 185.686C133.274 185.523 133.528 185.292 133.736 184.992C133.945 184.699 134.117 184.364 134.254 183.986L134.635 182.971L130.318 172.189ZM148.199 171.984C149.482 171.984 150.51 172.453 151.285 173.391C152.066 174.328 152.457 175.721 152.457 177.57C152.457 178.794 152.275 179.826 151.91 180.666C151.552 181.499 151.048 182.131 150.396 182.561C149.752 182.984 149 183.195 148.141 183.195C147.594 183.195 147.118 183.124 146.715 182.98C146.311 182.837 145.966 182.652 145.68 182.424C145.393 182.189 145.152 181.936 144.957 181.662H144.82C144.853 181.923 144.882 182.212 144.908 182.531C144.941 182.844 144.957 183.13 144.957 183.391V187.795H142.652V172.189H144.527L144.85 173.684H144.957C145.159 173.378 145.403 173.094 145.689 172.834C145.982 172.574 146.334 172.368 146.744 172.219C147.161 172.062 147.646 171.984 148.199 171.984ZM147.584 173.859C146.952 173.859 146.445 173.986 146.061 174.24C145.683 174.488 145.406 174.862 145.23 175.363C145.061 175.865 144.97 176.493 144.957 177.248V177.57C144.957 178.371 145.038 179.051 145.201 179.611C145.37 180.165 145.647 180.588 146.031 180.881C146.422 181.167 146.949 181.311 147.613 181.311C148.173 181.311 148.635 181.158 149 180.852C149.371 180.546 149.648 180.109 149.83 179.543C150.012 178.977 150.104 178.309 150.104 177.541C150.104 176.376 149.895 175.471 149.479 174.826C149.068 174.182 148.437 173.859 147.584 173.859ZM164.684 177.57C164.684 178.469 164.566 179.266 164.332 179.963C164.098 180.66 163.756 181.249 163.307 181.73C162.857 182.206 162.317 182.57 161.686 182.824C161.054 183.072 160.341 183.195 159.547 183.195C158.805 183.195 158.124 183.072 157.506 182.824C156.887 182.57 156.35 182.206 155.895 181.73C155.445 181.249 155.097 180.66 154.85 179.963C154.602 179.266 154.479 178.469 154.479 177.57C154.479 176.379 154.684 175.37 155.094 174.543C155.51 173.71 156.103 173.075 156.871 172.639C157.639 172.202 158.554 171.984 159.615 171.984C160.611 171.984 161.49 172.202 162.252 172.639C163.014 173.075 163.609 173.71 164.039 174.543C164.469 175.376 164.684 176.385 164.684 177.57ZM156.842 177.57C156.842 178.358 156.936 179.032 157.125 179.592C157.32 180.152 157.62 180.581 158.023 180.881C158.427 181.174 158.948 181.32 159.586 181.32C160.224 181.32 160.745 181.174 161.148 180.881C161.552 180.581 161.848 180.152 162.037 179.592C162.226 179.032 162.32 178.358 162.32 177.57C162.32 176.783 162.226 176.115 162.037 175.568C161.848 175.015 161.552 174.595 161.148 174.309C160.745 174.016 160.221 173.869 159.576 173.869C158.626 173.869 157.932 174.188 157.496 174.826C157.06 175.464 156.842 176.379 156.842 177.57ZM170.406 187.805C168.941 187.805 167.818 187.541 167.037 187.014C166.256 186.486 165.865 185.747 165.865 184.797C165.865 184.133 166.074 183.57 166.49 183.107C166.907 182.652 167.503 182.336 168.277 182.16C167.984 182.03 167.73 181.828 167.516 181.555C167.307 181.275 167.203 180.965 167.203 180.627C167.203 180.223 167.317 179.878 167.545 179.592C167.773 179.305 168.115 179.029 168.57 178.762C168.004 178.521 167.548 178.13 167.203 177.59C166.865 177.043 166.695 176.402 166.695 175.666C166.695 174.885 166.861 174.221 167.193 173.674C167.525 173.12 168.01 172.701 168.648 172.414C169.286 172.121 170.058 171.975 170.963 171.975C171.158 171.975 171.37 171.988 171.598 172.014C171.832 172.033 172.047 172.059 172.242 172.092C172.444 172.118 172.597 172.147 172.701 172.18H176.441V173.459L174.605 173.801C174.781 174.048 174.921 174.331 175.025 174.65C175.13 174.963 175.182 175.305 175.182 175.676C175.182 176.796 174.794 177.678 174.02 178.322C173.251 178.96 172.19 179.279 170.836 179.279C170.51 179.266 170.195 179.24 169.889 179.201C169.654 179.344 169.475 179.504 169.352 179.68C169.228 179.849 169.166 180.041 169.166 180.256C169.166 180.432 169.228 180.575 169.352 180.686C169.475 180.79 169.658 180.868 169.898 180.92C170.146 180.972 170.445 180.998 170.797 180.998H172.662C173.847 180.998 174.752 181.249 175.377 181.75C176.002 182.251 176.314 182.987 176.314 183.957C176.314 185.188 175.807 186.135 174.791 186.799C173.775 187.469 172.314 187.805 170.406 187.805ZM170.494 186.193C171.295 186.193 171.969 186.115 172.516 185.959C173.062 185.803 173.476 185.578 173.756 185.285C174.036 184.999 174.176 184.657 174.176 184.26C174.176 183.908 174.088 183.638 173.912 183.449C173.736 183.26 173.473 183.13 173.121 183.059C172.77 182.987 172.333 182.951 171.812 182.951H170.113C169.69 182.951 169.316 183.016 168.99 183.146C168.665 183.283 168.411 183.479 168.229 183.732C168.053 183.986 167.965 184.292 167.965 184.65C167.965 185.145 168.183 185.526 168.619 185.793C169.062 186.06 169.687 186.193 170.494 186.193ZM170.943 177.775C171.614 177.775 172.112 177.593 172.438 177.229C172.763 176.857 172.926 176.337 172.926 175.666C172.926 174.937 172.757 174.39 172.418 174.025C172.086 173.661 171.591 173.479 170.934 173.479C170.289 173.479 169.798 173.664 169.459 174.035C169.127 174.406 168.961 174.956 168.961 175.686C168.961 176.343 169.127 176.857 169.459 177.229C169.798 177.593 170.292 177.775 170.943 177.775ZM183.893 171.984C184.075 171.984 184.273 171.994 184.488 172.014C184.703 172.033 184.889 172.059 185.045 172.092L184.83 174.24C184.693 174.201 184.524 174.172 184.322 174.152C184.127 174.133 183.951 174.123 183.795 174.123C183.385 174.123 182.994 174.191 182.623 174.328C182.252 174.458 181.923 174.66 181.637 174.934C181.35 175.201 181.126 175.536 180.963 175.939C180.8 176.343 180.719 176.812 180.719 177.346V183H178.414V172.189H180.211L180.523 174.094H180.631C180.846 173.71 181.113 173.358 181.432 173.039C181.751 172.72 182.115 172.466 182.525 172.277C182.942 172.082 183.398 171.984 183.893 171.984ZM191.285 171.984C192.652 171.984 193.684 172.287 194.381 172.893C195.084 173.498 195.436 174.442 195.436 175.725V183H193.805L193.365 181.467H193.287C192.981 181.857 192.665 182.18 192.34 182.434C192.014 182.688 191.637 182.876 191.207 183C190.784 183.13 190.266 183.195 189.654 183.195C189.01 183.195 188.434 183.078 187.926 182.844C187.418 182.603 187.018 182.238 186.725 181.75C186.432 181.262 186.285 180.643 186.285 179.895C186.285 178.781 186.699 177.945 187.525 177.385C188.359 176.825 189.615 176.516 191.295 176.457L193.17 176.389V175.822C193.17 175.074 192.994 174.54 192.643 174.221C192.298 173.902 191.809 173.742 191.178 173.742C190.637 173.742 190.113 173.82 189.605 173.977C189.098 174.133 188.603 174.325 188.121 174.553L187.379 172.932C187.906 172.652 188.505 172.424 189.176 172.248C189.853 172.072 190.556 171.984 191.285 171.984ZM193.16 177.834L191.764 177.883C190.618 177.922 189.814 178.117 189.352 178.469C188.889 178.82 188.658 179.302 188.658 179.914C188.658 180.448 188.818 180.839 189.137 181.086C189.456 181.327 189.876 181.447 190.396 181.447C191.191 181.447 191.848 181.223 192.369 180.773C192.896 180.318 193.16 179.65 193.16 178.771V177.834ZM204.195 171.984C205.478 171.984 206.507 172.453 207.281 173.391C208.062 174.328 208.453 175.721 208.453 177.57C208.453 178.794 208.271 179.826 207.906 180.666C207.548 181.499 207.044 182.131 206.393 182.561C205.748 182.984 204.996 183.195 204.137 183.195C203.59 183.195 203.115 183.124 202.711 182.98C202.307 182.837 201.962 182.652 201.676 182.424C201.389 182.189 201.148 181.936 200.953 181.662H200.816C200.849 181.923 200.878 182.212 200.904 182.531C200.937 182.844 200.953 183.13 200.953 183.391V187.795H198.648V172.189H200.523L200.846 173.684H200.953C201.155 173.378 201.399 173.094 201.686 172.834C201.979 172.574 202.33 172.368 202.74 172.219C203.157 172.062 203.642 171.984 204.195 171.984ZM203.58 173.859C202.949 173.859 202.441 173.986 202.057 174.24C201.679 174.488 201.402 174.862 201.227 175.363C201.057 175.865 200.966 176.493 200.953 177.248V177.57C200.953 178.371 201.035 179.051 201.197 179.611C201.367 180.165 201.643 180.588 202.027 180.881C202.418 181.167 202.945 181.311 203.609 181.311C204.169 181.311 204.632 181.158 204.996 180.852C205.367 180.546 205.644 180.109 205.826 179.543C206.008 178.977 206.1 178.309 206.1 177.541C206.1 176.376 205.891 175.471 205.475 174.826C205.064 174.182 204.433 173.859 203.58 173.859ZM213.404 167.805V171.623C213.404 172.02 213.391 172.408 213.365 172.785C213.346 173.163 213.323 173.456 213.297 173.664H213.424C213.652 173.286 213.932 172.977 214.264 172.736C214.596 172.489 214.967 172.303 215.377 172.18C215.794 172.056 216.236 171.994 216.705 171.994C217.532 171.994 218.235 172.134 218.814 172.414C219.394 172.688 219.837 173.114 220.143 173.693C220.455 174.273 220.611 175.025 220.611 175.949V183H218.316V176.379C218.316 175.539 218.144 174.911 217.799 174.494C217.454 174.071 216.92 173.859 216.197 173.859C215.501 173.859 214.947 174.006 214.537 174.299C214.133 174.585 213.844 175.012 213.668 175.578C213.492 176.138 213.404 176.822 213.404 177.629V183H211.109V167.805H213.404ZM222.193 172.189H224.693L226.91 178.361C227.008 178.641 227.096 178.918 227.174 179.191C227.258 179.458 227.33 179.722 227.389 179.982C227.454 180.243 227.506 180.503 227.545 180.764H227.604C227.669 180.425 227.76 180.048 227.877 179.631C228.001 179.208 228.137 178.785 228.287 178.361L230.416 172.189H232.887L228.248 184.484C227.981 185.188 227.652 185.786 227.262 186.281C226.878 186.783 226.422 187.16 225.895 187.414C225.367 187.674 224.765 187.805 224.088 187.805C223.762 187.805 223.479 187.785 223.238 187.746C222.997 187.714 222.792 187.678 222.623 187.639V185.803C222.76 185.835 222.932 185.865 223.141 185.891C223.349 185.917 223.564 185.93 223.785 185.93C224.195 185.93 224.55 185.848 224.85 185.686C225.149 185.523 225.403 185.292 225.611 184.992C225.82 184.699 225.992 184.364 226.129 183.986L226.51 182.971L222.193 172.189Z" fill="black"/>
<path d="M10.1349 215.28V220.1C10.1349 220.22 10.1949 220.28 10.3149 220.28H11.3349C14.1616 220.28 15.5749 219.32 15.5749 217.4C15.5749 216.587 15.2683 215.98 14.6549 215.58C14.0549 215.167 13.0816 214.96 11.7349 214.96C11.2283 214.96 10.7483 215 10.2949 215.08C10.1883 215.107 10.1349 215.173 10.1349 215.28ZM9.81492 227.68C9.60159 227.893 9.34159 228 9.03492 228C8.72826 228 8.46826 227.893 8.25492 227.68C8.04159 227.467 7.93492 227.207 7.93492 226.9V214.64C7.93492 214.307 8.04159 214.02 8.25492 213.78C8.46826 213.527 8.74159 213.387 9.07492 213.36C10.0616 213.253 11.0149 213.2 11.9349 213.2C13.8549 213.2 15.3016 213.553 16.2749 214.26C17.2483 214.967 17.7349 215.947 17.7349 217.2C17.7349 218.213 17.4749 219.08 16.9549 219.8C16.4483 220.507 15.7483 221 14.8549 221.28C14.8416 221.28 14.8349 221.287 14.8349 221.3C14.8349 221.327 14.8416 221.34 14.8549 221.34C15.4283 221.727 15.9549 222.513 16.4349 223.7L17.7149 226.94C17.8216 227.193 17.7949 227.433 17.6349 227.66C17.4749 227.887 17.2616 228 16.9949 228C16.6483 228 16.3349 227.907 16.0549 227.72C15.7749 227.52 15.5749 227.26 15.4549 226.94L14.1949 223.7C13.9149 222.98 13.6016 222.52 13.2549 222.32C12.9216 222.107 12.2816 222 11.3349 222H10.3149C10.1949 222 10.1349 222.06 10.1349 222.18V226.9C10.1349 227.207 10.0283 227.467 9.81492 227.68ZM26.6285 222.8C26.6285 220.267 25.7085 219 23.8685 219C22.0285 219 21.1085 220.267 21.1085 222.8C21.1085 225.333 22.0285 226.6 23.8685 226.6C25.7085 226.6 26.6285 225.333 26.6285 222.8ZM27.4685 226.8C26.6018 227.733 25.4018 228.2 23.8685 228.2C22.3352 228.2 21.1352 227.733 20.2685 226.8C19.4018 225.853 18.9685 224.52 18.9685 222.8C18.9685 221.08 19.4018 219.753 20.2685 218.82C21.1352 217.873 22.3352 217.4 23.8685 217.4C25.4018 217.4 26.6018 217.873 27.4685 218.82C28.3352 219.753 28.7685 221.08 28.7685 222.8C28.7685 224.52 28.3352 225.853 27.4685 226.8ZM34.2576 228.2C33.0842 228.2 32.2242 227.88 31.6776 227.24C31.1309 226.587 30.8576 225.507 30.8576 224V218.62C30.8576 218.34 30.9576 218.1 31.1576 217.9C31.3576 217.7 31.5976 217.6 31.8776 217.6C32.1576 217.6 32.3976 217.7 32.5976 217.9C32.8109 218.1 32.9176 218.34 32.9176 218.62V223.7C32.9176 224.807 33.0642 225.567 33.3576 225.98C33.6509 226.393 34.1509 226.6 34.8576 226.6C35.4842 226.6 36.0709 226.327 36.6176 225.78C37.1776 225.22 37.4576 224.627 37.4576 224V218.64C37.4576 218.347 37.5576 218.1 37.7576 217.9C37.9709 217.7 38.2242 217.6 38.5176 217.6C38.8109 217.6 39.0576 217.7 39.2576 217.9C39.4576 218.1 39.5576 218.347 39.5576 218.64V227.02C39.5576 227.287 39.4576 227.52 39.2576 227.72C39.0709 227.907 38.8442 228 38.5776 228C38.3109 228 38.0776 227.907 37.8776 227.72C37.6776 227.52 37.5709 227.287 37.5576 227.02V226.72C37.5576 226.707 37.5509 226.7 37.5376 226.7C37.5242 226.7 37.5109 226.707 37.4976 226.72C36.5509 227.707 35.4709 228.2 34.2576 228.2ZM44.242 227.7C44.042 227.9 43.7953 228 43.502 228C43.2086 228 42.9553 227.9 42.742 227.7C42.542 227.5 42.442 227.253 42.442 226.96V218.58C42.442 218.313 42.5353 218.087 42.722 217.9C42.922 217.7 43.1553 217.6 43.422 217.6C43.6886 217.6 43.9153 217.7 44.102 217.9C44.302 218.087 44.4086 218.313 44.422 218.58L44.442 218.88C44.442 218.893 44.4486 218.9 44.462 218.9C44.4753 218.9 44.4886 218.893 44.502 218.88C45.4486 217.893 46.5286 217.4 47.742 217.4C48.9553 217.4 49.842 217.747 50.402 218.44C50.962 219.12 51.242 220.24 51.242 221.8V226.98C51.242 227.26 51.142 227.5 50.942 227.7C50.742 227.9 50.502 228 50.222 228C49.942 228 49.6953 227.9 49.482 227.7C49.282 227.5 49.182 227.26 49.182 226.98V222.1C49.182 220.9 49.0353 220.087 48.742 219.66C48.4486 219.22 47.9153 219 47.142 219C46.5153 219 45.922 219.28 45.362 219.84C44.8153 220.387 44.542 220.973 44.542 221.6V226.96C44.542 227.253 44.442 227.5 44.242 227.7ZM58.124 219C56.3907 219 55.524 220.267 55.524 222.8C55.524 224.08 55.7507 225.033 56.204 225.66C56.6707 226.287 57.3107 226.6 58.124 226.6C58.8307 226.6 59.4373 226.367 59.944 225.9C60.464 225.433 60.724 224.9 60.724 224.3V221.3C60.724 220.7 60.464 220.167 59.944 219.7C59.4373 219.233 58.8307 219 58.124 219ZM57.624 228.2C56.4107 228.2 55.404 227.713 54.604 226.74C53.8173 225.767 53.424 224.453 53.424 222.8C53.424 221.093 53.804 219.767 54.564 218.82C55.3373 217.873 56.3573 217.4 57.624 217.4C58.8107 217.4 59.824 217.827 60.664 218.68C60.6773 218.693 60.6907 218.7 60.704 218.7C60.7173 218.7 60.724 218.693 60.724 218.68V214.04C60.724 213.747 60.824 213.5 61.024 213.3C61.2373 213.1 61.4907 213 61.784 213C62.0773 213 62.324 213.1 62.524 213.3C62.724 213.5 62.824 213.747 62.824 214.04V227.02C62.824 227.287 62.724 227.52 62.524 227.72C62.3373 227.907 62.1107 228 61.844 228C61.5773 228 61.344 227.907 61.144 227.72C60.9573 227.52 60.8573 227.287 60.844 227.02L60.824 226.72C60.824 226.707 60.8173 226.7 60.804 226.7C60.7907 226.7 60.7773 226.707 60.764 226.72C60.2707 227.267 59.784 227.653 59.304 227.88C58.824 228.093 58.264 228.2 57.624 228.2ZM69.8013 218.96C68.2813 218.96 67.428 219.86 67.2413 221.66C67.2147 221.78 67.268 221.84 67.4013 221.84H71.8813C71.988 221.84 72.0413 221.78 72.0413 221.66C71.9613 219.86 71.2147 218.96 69.8013 218.96ZM70.3013 228.2C68.6347 228.2 67.348 227.747 66.4413 226.84C65.548 225.933 65.1013 224.587 65.1013 222.8C65.1013 221.013 65.5013 219.667 66.3013 218.76C67.1147 217.853 68.2813 217.4 69.8013 217.4C72.5747 217.4 74.008 219.027 74.1013 222.28C74.1147 222.6 74.0013 222.867 73.7613 223.08C73.5213 223.293 73.2413 223.4 72.9213 223.4H67.3813C67.2747 223.4 67.2213 223.453 67.2213 223.56C67.3813 225.613 68.4747 226.64 70.5013 226.64C71.208 226.64 71.9013 226.527 72.5813 226.3C72.7813 226.233 72.968 226.26 73.1413 226.38C73.3147 226.5 73.4013 226.667 73.4013 226.88C73.4013 227.133 73.3213 227.36 73.1613 227.56C73.0013 227.76 72.7947 227.893 72.5413 227.96C71.808 228.12 71.0613 228.2 70.3013 228.2ZM80.6826 219C78.9492 219 78.0826 220.267 78.0826 222.8C78.0826 224.08 78.3092 225.033 78.7626 225.66C79.2292 226.287 79.8692 226.6 80.6826 226.6C81.3892 226.6 81.9959 226.367 82.5026 225.9C83.0226 225.433 83.2826 224.9 83.2826 224.3V221.3C83.2826 220.7 83.0226 220.167 82.5026 219.7C81.9959 219.233 81.3892 219 80.6826 219ZM80.1826 228.2C78.9692 228.2 77.9626 227.713 77.1626 226.74C76.3759 225.767 75.9826 224.453 75.9826 222.8C75.9826 221.093 76.3626 219.767 77.1226 218.82C77.8959 217.873 78.9159 217.4 80.1826 217.4C81.3692 217.4 82.3826 217.827 83.2226 218.68C83.2359 218.693 83.2492 218.7 83.2626 218.7C83.2759 218.7 83.2826 218.693 83.2826 218.68V214.04C83.2826 213.747 83.3826 213.5 83.5826 213.3C83.7959 213.1 84.0492 213 84.3426 213C84.6359 213 84.8826 213.1 85.0826 213.3C85.2826 213.5 85.3826 213.747 85.3826 214.04V227.02C85.3826 227.287 85.2826 227.52 85.0826 227.72C84.8959 227.907 84.6692 228 84.4026 228C84.1359 228 83.9026 227.907 83.7026 227.72C83.5159 227.52 83.4159 227.287 83.4026 227.02L83.3826 226.72C83.3826 226.707 83.3759 226.7 83.3626 226.7C83.3492 226.7 83.3359 226.707 83.3226 226.72C82.8292 227.267 82.3426 227.653 81.8626 227.88C81.3826 228.093 80.8226 228.2 80.1826 228.2ZM95.9068 227.7C95.7068 227.9 95.4601 228 95.1668 228C94.8735 228 94.6201 227.9 94.4068 227.7C94.2068 227.487 94.1068 227.233 94.1068 226.94V214.46C94.1068 214.167 94.2068 213.92 94.4068 213.72C94.6201 213.507 94.8735 213.4 95.1668 213.4C95.8735 213.4 96.3868 213.713 96.7068 214.34L100.647 221.98C100.647 221.993 100.653 222 100.667 222C100.68 222 100.687 221.993 100.687 221.98L104.607 214.38C104.94 213.727 105.473 213.4 106.207 213.4C106.513 213.4 106.773 213.507 106.987 213.72C107.2 213.933 107.307 214.193 107.307 214.5V226.9C107.307 227.207 107.2 227.467 106.987 227.68C106.773 227.893 106.513 228 106.207 228C105.9 228 105.64 227.893 105.427 227.68C105.213 227.467 105.107 227.207 105.107 226.9V217.22C105.107 217.207 105.1 217.2 105.087 217.2C105.073 217.2 105.067 217.207 105.067 217.22L102.107 223.1C101.8 223.7 101.32 224 100.667 224C100.013 224 99.5335 223.7 99.2268 223.1L96.2668 217.22C96.2668 217.207 96.2601 217.2 96.2468 217.2C96.2335 217.2 96.2268 217.207 96.2268 217.22V226.94C96.2268 227.233 96.1201 227.487 95.9068 227.7ZM112.491 221.3V224.3C112.491 224.913 112.745 225.453 113.251 225.92C113.771 226.373 114.385 226.6 115.091 226.6C115.891 226.6 116.525 226.28 116.991 225.64C117.458 225 117.691 224.053 117.691 222.8C117.691 220.267 116.825 219 115.091 219C114.385 219 113.771 219.233 113.251 219.7C112.745 220.153 112.491 220.687 112.491 221.3ZM112.171 232.1C111.971 232.3 111.725 232.4 111.431 232.4C111.138 232.4 110.891 232.3 110.691 232.1C110.491 231.9 110.391 231.653 110.391 231.36V218.58C110.391 218.313 110.485 218.087 110.671 217.9C110.871 217.7 111.105 217.6 111.371 217.6C111.638 217.6 111.871 217.7 112.071 217.9C112.271 218.087 112.378 218.313 112.391 218.58V218.88C112.391 218.893 112.398 218.9 112.411 218.9C112.425 218.9 112.438 218.893 112.451 218.88C112.945 218.333 113.431 217.953 113.911 217.74C114.391 217.513 114.951 217.4 115.591 217.4C116.858 217.4 117.871 217.873 118.631 218.82C119.405 219.767 119.791 221.093 119.791 222.8C119.791 224.453 119.391 225.767 118.591 226.74C117.805 227.713 116.805 228.2 115.591 228.2C114.405 228.2 113.391 227.773 112.551 226.92C112.538 226.907 112.525 226.9 112.511 226.9C112.498 226.9 112.491 226.907 112.491 226.92V231.36C112.491 231.653 112.385 231.9 112.171 232.1ZM124.631 227.68C124.418 227.893 124.164 228 123.871 228C123.578 228 123.318 227.893 123.091 227.68C122.878 227.467 122.771 227.207 122.771 226.9V214.1C122.771 213.793 122.878 213.533 123.091 213.32C123.318 213.107 123.578 213 123.871 213C124.164 213 124.418 213.107 124.631 213.32C124.858 213.533 124.971 213.793 124.971 214.1V226.9C124.971 227.207 124.858 227.467 124.631 227.68ZM131.855 228.2C130.682 228.2 129.822 227.88 129.275 227.24C128.729 226.587 128.455 225.507 128.455 224V218.62C128.455 218.34 128.555 218.1 128.755 217.9C128.955 217.7 129.195 217.6 129.475 217.6C129.755 217.6 129.995 217.7 130.195 217.9C130.409 218.1 130.515 218.34 130.515 218.62V223.7C130.515 224.807 130.662 225.567 130.955 225.98C131.249 226.393 131.749 226.6 132.455 226.6C133.082 226.6 133.669 226.327 134.215 225.78C134.775 225.22 135.055 224.627 135.055 224V218.64C135.055 218.347 135.155 218.1 135.355 217.9C135.569 217.7 135.822 217.6 136.115 217.6C136.409 217.6 136.655 217.7 136.855 217.9C137.055 218.1 137.155 218.347 137.155 218.64V227.02C137.155 227.287 137.055 227.52 136.855 227.72C136.669 227.907 136.442 228 136.175 228C135.909 228 135.675 227.907 135.475 227.72C135.275 227.52 135.169 227.287 135.155 227.02V226.72C135.155 226.707 135.149 226.7 135.135 226.7C135.122 226.7 135.109 226.707 135.095 226.72C134.149 227.707 133.069 228.2 131.855 228.2ZM143.44 223.6C142.08 223.267 141.12 222.847 140.56 222.34C140.013 221.82 139.74 221.173 139.74 220.4C139.74 219.467 140.073 218.733 140.74 218.2C141.42 217.667 142.42 217.4 143.74 217.4C144.593 217.4 145.453 217.493 146.32 217.68C146.56 217.733 146.753 217.867 146.9 218.08C147.06 218.28 147.14 218.507 147.14 218.76C147.14 218.973 147.053 219.14 146.88 219.26C146.706 219.38 146.52 219.407 146.32 219.34C145.48 219.113 144.686 219 143.94 219C142.54 219 141.84 219.4 141.84 220.2C141.84 220.6 141.973 220.927 142.24 221.18C142.506 221.433 142.973 221.64 143.64 221.8C145.173 222.16 146.206 222.593 146.74 223.1C147.273 223.593 147.54 224.327 147.54 225.3C147.54 226.207 147.186 226.92 146.48 227.44C145.786 227.947 144.773 228.2 143.44 228.2C142.573 228.2 141.706 228.087 140.84 227.86C140.6 227.793 140.406 227.66 140.26 227.46C140.113 227.247 140.04 227.013 140.04 226.76C140.04 226.56 140.12 226.4 140.28 226.28C140.453 226.16 140.633 226.133 140.82 226.2C141.646 226.467 142.453 226.6 143.24 226.6C144.706 226.6 145.44 226.167 145.44 225.3C145.44 224.887 145.293 224.553 145 224.3C144.706 224.033 144.186 223.8 143.44 223.6ZM157.305 218.28C157.118 218.427 156.925 218.453 156.725 218.36C156.525 218.253 156.425 218.087 156.425 217.86V217.74C156.425 216.98 156.718 216.367 157.305 215.9L159.565 214.08C160.138 213.627 160.791 213.4 161.525 213.4C161.831 213.4 162.091 213.507 162.305 213.72C162.518 213.933 162.625 214.193 162.625 214.5V226.9C162.625 227.207 162.518 227.467 162.305 227.68C162.091 227.893 161.831 228 161.525 228C161.218 228 160.958 227.893 160.745 227.68C160.531 227.467 160.425 227.207 160.425 226.9V215.82C160.425 215.807 160.418 215.8 160.405 215.8L160.365 215.82L157.305 218.28ZM172.562 228.2C170.962 228.2 169.729 227.747 168.862 226.84C167.996 225.92 167.562 224.573 167.562 222.8C167.562 221.053 167.982 219.72 168.822 218.8C169.662 217.867 170.842 217.4 172.362 217.4C173.069 217.4 173.742 217.447 174.382 217.54C174.636 217.58 174.842 217.7 175.002 217.9C175.176 218.1 175.262 218.333 175.262 218.6C175.262 218.827 175.169 219.007 174.982 219.14C174.809 219.273 174.609 219.313 174.382 219.26C173.729 219.113 173.109 219.04 172.522 219.04C171.602 219.04 170.909 219.34 170.442 219.94C169.989 220.54 169.762 221.493 169.762 222.8C169.762 224.133 170.002 225.093 170.482 225.68C170.976 226.267 171.722 226.56 172.722 226.56C173.349 226.56 173.949 226.473 174.522 226.3C174.736 226.233 174.929 226.267 175.102 226.4C175.276 226.52 175.362 226.687 175.362 226.9C175.362 227.167 175.276 227.407 175.102 227.62C174.929 227.833 174.716 227.967 174.462 228.02C173.822 228.14 173.189 228.2 172.562 228.2ZM9.02164 245.28V250.1C9.02164 250.22 9.08164 250.28 9.20164 250.28H10.2216C13.0483 250.28 14.4616 249.32 14.4616 247.4C14.4616 246.587 14.155 245.98 13.5416 245.58C12.9416 245.167 11.9683 244.96 10.6216 244.96C10.115 244.96 9.63497 245 9.18164 245.08C9.07497 245.107 9.02164 245.173 9.02164 245.28ZM8.70164 257.68C8.48831 257.893 8.22831 258 7.92164 258C7.61497 258 7.35497 257.893 7.14164 257.68C6.92831 257.467 6.82164 257.207 6.82164 256.9V244.64C6.82164 244.307 6.92831 244.02 7.14164 243.78C7.35497 243.527 7.62831 243.387 7.96164 243.36C8.94831 243.253 9.90164 243.2 10.8216 243.2C12.7416 243.2 14.1883 243.553 15.1616 244.26C16.135 244.967 16.6216 245.947 16.6216 247.2C16.6216 248.213 16.3616 249.08 15.8416 249.8C15.335 250.507 14.635 251 13.7416 251.28C13.7283 251.28 13.7216 251.287 13.7216 251.3C13.7216 251.327 13.7283 251.34 13.7416 251.34C14.315 251.727 14.8416 252.513 15.3216 253.7L16.6016 256.94C16.7083 257.193 16.6816 257.433 16.5216 257.66C16.3616 257.887 16.1483 258 15.8816 258C15.535 258 15.2216 257.907 14.9416 257.72C14.6616 257.52 14.4616 257.26 14.3416 256.94L13.0816 253.7C12.8016 252.98 12.4883 252.52 12.1416 252.32C11.8083 252.107 11.1683 252 10.2216 252H9.20164C9.08164 252 9.02164 252.06 9.02164 252.18V256.9C9.02164 257.207 8.91497 257.467 8.70164 257.68ZM25.5152 252.8C25.5152 250.267 24.5952 249 22.7552 249C20.9152 249 19.9952 250.267 19.9952 252.8C19.9952 255.333 20.9152 256.6 22.7552 256.6C24.5952 256.6 25.5152 255.333 25.5152 252.8ZM26.3552 256.8C25.4886 257.733 24.2886 258.2 22.7552 258.2C21.2219 258.2 20.0219 257.733 19.1552 256.8C18.2886 255.853 17.8552 254.52 17.8552 252.8C17.8552 251.08 18.2886 249.753 19.1552 248.82C20.0219 247.873 21.2219 247.4 22.7552 247.4C24.2886 247.4 25.4886 247.873 26.3552 248.82C27.2219 249.753 27.6552 251.08 27.6552 252.8C27.6552 254.52 27.2219 255.853 26.3552 256.8ZM33.1443 258.2C31.971 258.2 31.111 257.88 30.5643 257.24C30.0176 256.587 29.7443 255.507 29.7443 254V248.62C29.7443 248.34 29.8443 248.1 30.0443 247.9C30.2443 247.7 30.4843 247.6 30.7643 247.6C31.0443 247.6 31.2843 247.7 31.4843 247.9C31.6976 248.1 31.8043 248.34 31.8043 248.62V253.7C31.8043 254.807 31.951 255.567 32.2443 255.98C32.5376 256.393 33.0376 256.6 33.7443 256.6C34.371 256.6 34.9576 256.327 35.5043 255.78C36.0643 255.22 36.3443 254.627 36.3443 254V248.64C36.3443 248.347 36.4443 248.1 36.6443 247.9C36.8576 247.7 37.111 247.6 37.4043 247.6C37.6976 247.6 37.9443 247.7 38.1443 247.9C38.3443 248.1 38.4443 248.347 38.4443 248.64V257.02C38.4443 257.287 38.3443 257.52 38.1443 257.72C37.9576 257.907 37.731 258 37.4643 258C37.1976 258 36.9643 257.907 36.7643 257.72C36.5643 257.52 36.4576 257.287 36.4443 257.02V256.72C36.4443 256.707 36.4376 256.7 36.4243 256.7C36.411 256.7 36.3976 256.707 36.3843 256.72C35.4376 257.707 34.3576 258.2 33.1443 258.2ZM43.1287 257.7C42.9287 257.9 42.682 258 42.3887 258C42.0953 258 41.842 257.9 41.6287 257.7C41.4287 257.5 41.3287 257.253 41.3287 256.96V248.58C41.3287 248.313 41.422 248.087 41.6087 247.9C41.8087 247.7 42.042 247.6 42.3087 247.6C42.5753 247.6 42.802 247.7 42.9887 247.9C43.1887 248.087 43.2953 248.313 43.3087 248.58L43.3287 248.88C43.3287 248.893 43.3353 248.9 43.3487 248.9C43.362 248.9 43.3753 248.893 43.3887 248.88C44.3353 247.893 45.4153 247.4 46.6287 247.4C47.842 247.4 48.7287 247.747 49.2887 248.44C49.8487 249.12 50.1287 250.24 50.1287 251.8V256.98C50.1287 257.26 50.0287 257.5 49.8287 257.7C49.6287 257.9 49.3887 258 49.1087 258C48.8287 258 48.582 257.9 48.3687 257.7C48.1687 257.5 48.0687 257.26 48.0687 256.98V252.1C48.0687 250.9 47.922 250.087 47.6287 249.66C47.3353 249.22 46.802 249 46.0287 249C45.402 249 44.8087 249.28 44.2487 249.84C43.702 250.387 43.4287 250.973 43.4287 251.6V256.96C43.4287 257.253 43.3287 257.5 43.1287 257.7ZM57.0107 249C55.2774 249 54.4107 250.267 54.4107 252.8C54.4107 254.08 54.6374 255.033 55.0907 255.66C55.5574 256.287 56.1974 256.6 57.0107 256.6C57.7174 256.6 58.324 256.367 58.8307 255.9C59.3507 255.433 59.6107 254.9 59.6107 254.3V251.3C59.6107 250.7 59.3507 250.167 58.8307 249.7C58.324 249.233 57.7174 249 57.0107 249ZM56.5107 258.2C55.2974 258.2 54.2907 257.713 53.4907 256.74C52.704 255.767 52.3107 254.453 52.3107 252.8C52.3107 251.093 52.6907 249.767 53.4507 248.82C54.224 247.873 55.244 247.4 56.5107 247.4C57.6974 247.4 58.7107 247.827 59.5507 248.68C59.564 248.693 59.5774 248.7 59.5907 248.7C59.604 248.7 59.6107 248.693 59.6107 248.68V244.04C59.6107 243.747 59.7107 243.5 59.9107 243.3C60.124 243.1 60.3774 243 60.6707 243C60.964 243 61.2107 243.1 61.4107 243.3C61.6107 243.5 61.7107 243.747 61.7107 244.04V257.02C61.7107 257.287 61.6107 257.52 61.4107 257.72C61.224 257.907 60.9974 258 60.7307 258C60.464 258 60.2307 257.907 60.0307 257.72C59.844 257.52 59.744 257.287 59.7307 257.02L59.7107 256.72C59.7107 256.707 59.704 256.7 59.6907 256.7C59.6774 256.7 59.664 256.707 59.6507 256.72C59.1574 257.267 58.6707 257.653 58.1907 257.88C57.7107 258.093 57.1507 258.2 56.5107 258.2ZM68.688 248.96C67.168 248.96 66.3147 249.86 66.128 251.66C66.1014 251.78 66.1547 251.84 66.288 251.84H70.768C70.8747 251.84 70.928 251.78 70.928 251.66C70.848 249.86 70.1014 248.96 68.688 248.96ZM69.188 258.2C67.5214 258.2 66.2347 257.747 65.328 256.84C64.4347 255.933 63.988 254.587 63.988 252.8C63.988 251.013 64.388 249.667 65.188 248.76C66.0014 247.853 67.168 247.4 68.688 247.4C71.4614 247.4 72.8947 249.027 72.988 252.28C73.0014 252.6 72.888 252.867 72.648 253.08C72.408 253.293 72.128 253.4 71.808 253.4H66.268C66.1614 253.4 66.108 253.453 66.108 253.56C66.268 255.613 67.3614 256.64 69.388 256.64C70.0947 256.64 70.788 256.527 71.468 256.3C71.668 256.233 71.8547 256.26 72.028 256.38C72.2014 256.5 72.288 256.667 72.288 256.88C72.288 257.133 72.208 257.36 72.048 257.56C71.888 257.76 71.6814 257.893 71.428 257.96C70.6947 258.12 69.948 258.2 69.188 258.2ZM79.5693 249C77.836 249 76.9693 250.267 76.9693 252.8C76.9693 254.08 77.196 255.033 77.6493 255.66C78.116 256.287 78.756 256.6 79.5693 256.6C80.276 256.6 80.8826 256.367 81.3893 255.9C81.9093 255.433 82.1693 254.9 82.1693 254.3V251.3C82.1693 250.7 81.9093 250.167 81.3893 249.7C80.8826 249.233 80.276 249 79.5693 249ZM79.0693 258.2C77.856 258.2 76.8493 257.713 76.0493 256.74C75.2626 255.767 74.8693 254.453 74.8693 252.8C74.8693 251.093 75.2493 249.767 76.0093 248.82C76.7826 247.873 77.8026 247.4 79.0693 247.4C80.256 247.4 81.2693 247.827 82.1093 248.68C82.1226 248.693 82.136 248.7 82.1493 248.7C82.1626 248.7 82.1693 248.693 82.1693 248.68V244.04C82.1693 243.747 82.2693 243.5 82.4693 243.3C82.6826 243.1 82.936 243 83.2293 243C83.5226 243 83.7693 243.1 83.9693 243.3C84.1693 243.5 84.2693 243.747 84.2693 244.04V257.02C84.2693 257.287 84.1693 257.52 83.9693 257.72C83.7826 257.907 83.556 258 83.2893 258C83.0226 258 82.7893 257.907 82.5893 257.72C82.4026 257.52 82.3026 257.287 82.2893 257.02L82.2693 256.72C82.2693 256.707 82.2626 256.7 82.2493 256.7C82.236 256.7 82.2226 256.707 82.2093 256.72C81.716 257.267 81.2293 257.653 80.7493 257.88C80.2693 258.093 79.7093 258.2 79.0693 258.2ZM94.2102 258C93.9036 258 93.6369 257.887 93.4102 257.66C93.1836 257.433 93.0702 257.167 93.0702 256.86V244.54C93.0702 244.233 93.1836 243.967 93.4102 243.74C93.6369 243.513 93.9036 243.4 94.2102 243.4H94.7102C95.0569 243.4 95.3769 243.493 95.6702 243.68C95.9636 243.867 96.1769 244.113 96.3102 244.42L99.8102 251.98C99.8102 251.993 99.8169 252 99.8302 252C99.8436 252 99.8502 251.993 99.8502 251.98L103.35 244.42C103.484 244.113 103.697 243.867 103.99 243.68C104.284 243.493 104.604 243.4 104.95 243.4H105.53C105.837 243.4 106.104 243.513 106.33 243.74C106.557 243.967 106.67 244.233 106.67 244.54V256.86C106.67 257.167 106.557 257.433 106.33 257.66C106.104 257.887 105.837 258 105.53 258H105.09C104.784 258 104.517 257.887 104.29 257.66C104.064 257.433 103.95 257.167 103.95 256.86V248.16C103.95 248.147 103.944 248.14 103.93 248.14C103.917 248.14 103.91 248.147 103.91 248.16L101.51 253.3C101.364 253.607 101.137 253.86 100.83 254.06C100.537 254.247 100.224 254.34 99.8902 254.34H99.7702C99.4369 254.34 99.1169 254.247 98.8102 254.06C98.5169 253.86 98.2969 253.607 98.1502 253.3L95.7502 248.16C95.7502 248.147 95.7436 248.14 95.7302 248.14C95.7169 248.14 95.7102 248.147 95.7102 248.16V256.86C95.7102 257.167 95.5969 257.433 95.3702 257.66C95.1436 257.887 94.8769 258 94.5702 258H94.2102ZM112.268 251.44V254.16C112.268 254.693 112.495 255.167 112.948 255.58C113.415 255.993 113.955 256.2 114.568 256.2C115.275 256.2 115.835 255.913 116.248 255.34C116.661 254.767 116.868 253.92 116.868 252.8C116.868 250.533 116.101 249.4 114.568 249.4C113.955 249.4 113.415 249.607 112.948 250.02C112.495 250.433 112.268 250.907 112.268 251.44ZM110.768 262.4C110.461 262.4 110.195 262.287 109.968 262.06C109.741 261.833 109.628 261.567 109.628 261.26V248.74C109.628 248.433 109.741 248.167 109.968 247.94C110.195 247.713 110.461 247.6 110.768 247.6H111.008C111.328 247.6 111.601 247.713 111.828 247.94C112.055 248.153 112.175 248.42 112.188 248.74V248.88C112.188 248.893 112.195 248.9 112.208 248.9C112.221 248.9 112.235 248.893 112.248 248.88C112.728 248.347 113.208 247.967 113.688 247.74C114.168 247.513 114.728 247.4 115.368 247.4C116.621 247.4 117.621 247.873 118.368 248.82C119.115 249.753 119.488 251.08 119.488 252.8C119.488 254.467 119.095 255.787 118.308 256.76C117.535 257.72 116.555 258.2 115.368 258.2C114.208 258.2 113.201 257.78 112.348 256.94C112.335 256.927 112.321 256.92 112.308 256.92C112.295 256.92 112.288 256.927 112.288 256.94V261.26C112.288 261.567 112.175 261.833 111.948 262.06C111.735 262.287 111.475 262.4 111.168 262.4H110.768ZM123.38 258C123.073 258 122.806 257.887 122.58 257.66C122.353 257.433 122.24 257.167 122.24 256.86V244.14C122.24 243.833 122.353 243.567 122.58 243.34C122.806 243.113 123.073 243 123.38 243H123.9C124.206 243 124.473 243.113 124.7 243.34C124.926 243.567 125.04 243.833 125.04 244.14V256.86C125.04 257.167 124.926 257.433 124.7 257.66C124.473 257.887 124.206 258 123.9 258H123.38ZM131.658 258.2C130.484 258.2 129.631 257.88 129.098 257.24C128.564 256.587 128.298 255.487 128.298 253.94V248.74C128.298 248.433 128.411 248.167 128.638 247.94C128.864 247.713 129.131 247.6 129.438 247.6H129.758C130.064 247.6 130.331 247.713 130.558 247.94C130.784 248.167 130.898 248.433 130.898 248.74V253.66C130.898 254.593 131.024 255.24 131.278 255.6C131.531 255.96 131.958 256.14 132.558 256.14C133.104 256.14 133.611 255.907 134.078 255.44C134.558 254.973 134.798 254.473 134.798 253.94V248.74C134.798 248.433 134.911 248.167 135.138 247.94C135.364 247.713 135.631 247.6 135.938 247.6H136.338C136.644 247.6 136.904 247.713 137.118 247.94C137.344 248.167 137.458 248.433 137.458 248.74V256.86C137.458 257.167 137.344 257.433 137.118 257.66C136.904 257.887 136.644 258 136.338 258H136.078C135.758 258 135.484 257.893 135.258 257.68C135.044 257.453 134.931 257.18 134.918 256.86L134.898 256.72C134.898 256.707 134.891 256.7 134.878 256.7C134.864 256.7 134.851 256.707 134.838 256.72C133.931 257.707 132.871 258.2 131.658 258.2ZM143.794 253.8C142.394 253.493 141.394 253.073 140.794 252.54C140.207 252.007 139.914 251.313 139.914 250.46C139.914 249.5 140.267 248.753 140.974 248.22C141.694 247.673 142.754 247.4 144.154 247.4C145.034 247.4 145.907 247.48 146.774 247.64C147.067 247.693 147.301 247.84 147.474 248.08C147.661 248.307 147.754 248.573 147.754 248.88C147.754 249.133 147.654 249.34 147.454 249.5C147.254 249.647 147.027 249.687 146.774 249.62C146.027 249.433 145.241 249.34 144.414 249.34C143.214 249.34 142.614 249.673 142.614 250.34C142.614 250.66 142.727 250.927 142.954 251.14C143.181 251.353 143.567 251.52 144.114 251.64C145.647 251.947 146.694 252.36 147.254 252.88C147.827 253.4 148.114 254.16 148.114 255.16C148.114 256.12 147.754 256.867 147.034 257.4C146.314 257.933 145.267 258.2 143.894 258.2C143.001 258.2 142.087 258.093 141.154 257.88C140.861 257.813 140.621 257.66 140.434 257.42C140.247 257.167 140.154 256.88 140.154 256.56C140.154 256.307 140.254 256.113 140.454 255.98C140.667 255.847 140.894 255.813 141.134 255.88C142.001 256.12 142.821 256.24 143.594 256.24C144.807 256.24 145.414 255.88 145.414 255.16C145.414 254.813 145.294 254.54 145.054 254.34C144.827 254.14 144.407 253.96 143.794 253.8ZM157.829 248.78C157.642 248.927 157.442 248.947 157.229 248.84C157.029 248.733 156.929 248.567 156.929 248.34V247.54C156.929 246.793 157.229 246.187 157.829 245.72L159.969 244.08C160.569 243.627 161.249 243.4 162.009 243.4H162.609C162.916 243.4 163.176 243.513 163.389 243.74C163.616 243.967 163.729 244.233 163.729 244.54V256.86C163.729 257.167 163.616 257.433 163.389 257.66C163.176 257.887 162.916 258 162.609 258H162.009C161.702 258 161.436 257.887 161.209 257.66C160.982 257.433 160.869 257.167 160.869 256.86V246.48L160.849 246.46L160.829 246.48L157.829 248.78ZM173.502 258.2C171.849 258.2 170.575 257.747 169.682 256.84C168.789 255.92 168.342 254.573 168.342 252.8C168.342 251.053 168.769 249.72 169.622 248.8C170.489 247.867 171.715 247.4 173.302 247.4C174.009 247.4 174.689 247.447 175.342 247.54C175.649 247.58 175.902 247.72 176.102 247.96C176.302 248.2 176.402 248.48 176.402 248.8C176.402 249.067 176.295 249.28 176.082 249.44C175.882 249.6 175.649 249.653 175.382 249.6C174.862 249.493 174.282 249.44 173.642 249.44C172.802 249.44 172.175 249.707 171.762 250.24C171.349 250.773 171.142 251.627 171.142 252.8C171.142 254 171.362 254.86 171.802 255.38C172.242 255.9 172.922 256.16 173.842 256.16C174.495 256.16 175.062 256.1 175.542 255.98C175.795 255.913 176.022 255.96 176.222 256.12C176.435 256.28 176.542 256.487 176.542 256.74C176.542 257.06 176.442 257.34 176.242 257.58C176.055 257.82 175.809 257.967 175.502 258.02C174.822 258.14 174.155 258.2 173.502 258.2ZM74.4533 281.52V285.72C74.4533 285.827 74.5133 285.893 74.6333 285.92C75.0999 285.987 75.5399 286.02 75.9533 286.02C77.0599 286.02 77.8666 285.82 78.3733 285.42C78.8933 285.007 79.1533 284.38 79.1533 283.54C79.1533 282.793 78.8533 282.247 78.2533 281.9C77.6666 281.54 76.6866 281.36 75.3133 281.36H74.6133C74.5066 281.36 74.4533 281.413 74.4533 281.52ZM74.4533 275.68V279.1C74.4533 279.22 74.5066 279.28 74.6133 279.28H75.1933C76.4333 279.28 77.3266 279.113 77.8733 278.78C78.4333 278.433 78.7133 277.927 78.7133 277.26C78.7133 276.62 78.4866 276.147 78.0333 275.84C77.5799 275.533 76.8399 275.38 75.8133 275.38C75.3466 275.38 74.9466 275.407 74.6133 275.46C74.5066 275.487 74.4533 275.56 74.4533 275.68ZM72.8133 288.04C72.4933 288.013 72.2266 287.88 72.0133 287.64C71.7999 287.387 71.6933 287.093 71.6933 286.76V274.64C71.6933 274.307 71.7999 274.02 72.0133 273.78C72.2266 273.527 72.4999 273.387 72.8333 273.36C73.8199 273.253 74.7733 273.2 75.6933 273.2C79.4266 273.2 81.2933 274.42 81.2933 276.86C81.2933 277.673 81.0199 278.38 80.4733 278.98C79.9266 279.58 79.2066 279.967 78.3133 280.14C78.2999 280.14 78.2933 280.147 78.2933 280.16C78.2933 280.187 78.2999 280.2 78.3133 280.2C79.4066 280.36 80.2599 280.767 80.8733 281.42C81.4999 282.06 81.8133 282.853 81.8133 283.8C81.8133 285.267 81.3333 286.367 80.3733 287.1C79.4133 287.833 77.9199 288.2 75.8933 288.2C74.8799 288.2 73.8533 288.147 72.8133 288.04ZM89.9961 280.18C89.6094 279.62 89.0228 279.34 88.2361 279.34C87.4494 279.34 86.8561 279.62 86.4561 280.18C86.0694 280.727 85.8761 281.6 85.8761 282.8C85.8761 284 86.0694 284.88 86.4561 285.44C86.8561 285.987 87.4494 286.26 88.2361 286.26C89.0228 286.26 89.6094 285.987 89.9961 285.44C90.3961 284.88 90.5961 284 90.5961 282.8C90.5961 281.6 90.3961 280.727 89.9961 280.18ZM91.9561 286.8C91.0761 287.733 89.8361 288.2 88.2361 288.2C86.6361 288.2 85.3894 287.733 84.4961 286.8C83.6161 285.853 83.1761 284.52 83.1761 282.8C83.1761 281.08 83.6161 279.753 84.4961 278.82C85.3894 277.873 86.6361 277.4 88.2361 277.4C89.8361 277.4 91.0761 277.873 91.9561 278.82C92.8494 279.753 93.2961 281.08 93.2961 282.8C93.2961 284.52 92.8494 285.853 91.9561 286.8ZM97.1005 288C96.7938 288 96.5271 287.887 96.3005 287.66C96.0738 287.433 95.9605 287.167 95.9605 286.86V274.14C95.9605 273.833 96.0738 273.567 96.3005 273.34C96.5271 273.113 96.7938 273 97.1005 273H97.6205C97.9271 273 98.1938 273.113 98.4205 273.34C98.6471 273.567 98.7605 273.833 98.7605 274.14V286.86C98.7605 287.167 98.6471 287.433 98.4205 287.66C98.1938 287.887 97.9271 288 97.6205 288H97.1005ZM106.458 279.4C104.925 279.4 104.158 280.533 104.158 282.8C104.158 283.933 104.365 284.787 104.778 285.36C105.192 285.92 105.752 286.2 106.458 286.2C107.085 286.2 107.625 285.993 108.078 285.58C108.532 285.167 108.758 284.693 108.758 284.16V281.44C108.758 280.907 108.532 280.433 108.078 280.02C107.625 279.607 107.085 279.4 106.458 279.4ZM105.658 288.2C104.472 288.2 103.485 287.72 102.698 286.76C101.912 285.787 101.518 284.467 101.518 282.8C101.518 281.08 101.892 279.753 102.638 278.82C103.398 277.873 104.405 277.4 105.658 277.4C106.792 277.4 107.792 277.813 108.658 278.64C108.672 278.653 108.685 278.66 108.698 278.66C108.712 278.66 108.718 278.653 108.718 278.64V274.14C108.718 273.833 108.832 273.567 109.058 273.34C109.285 273.113 109.552 273 109.858 273H110.258C110.565 273 110.832 273.113 111.058 273.34C111.285 273.567 111.398 273.833 111.398 274.14V286.86C111.398 287.167 111.285 287.433 111.058 287.66C110.832 287.887 110.565 288 110.258 288H110.038C109.718 288 109.445 287.893 109.218 287.68C109.005 287.453 108.892 287.18 108.878 286.86L108.858 286.72C108.858 286.707 108.852 286.7 108.838 286.7C108.825 286.7 108.812 286.707 108.798 286.72C107.918 287.707 106.872 288.2 105.658 288.2Z" fill="black"/>
<path d="M234.606 227H232.506L224.866 215.14H224.786C224.799 215.38 224.812 215.647 224.826 215.94C224.852 216.233 224.872 216.553 224.886 216.9C224.899 217.233 224.912 217.58 224.926 217.94C224.939 218.3 224.946 218.66 224.946 219.02V227H223.286V212.72H225.366L232.986 224.54H233.066C233.052 224.38 233.039 224.16 233.026 223.88C233.012 223.587 232.999 223.267 232.986 222.92C232.972 222.56 232.959 222.193 232.946 221.82C232.932 221.447 232.926 221.1 232.926 220.78V212.72H234.606V227ZM247.561 221.62C247.561 222.513 247.441 223.307 247.201 224C246.974 224.68 246.641 225.26 246.201 225.74C245.774 226.22 245.248 226.587 244.621 226.84C244.008 227.08 243.321 227.2 242.561 227.2C241.854 227.2 241.201 227.08 240.601 226.84C240.001 226.587 239.481 226.22 239.041 225.74C238.601 225.26 238.254 224.68 238.001 224C237.761 223.307 237.641 222.513 237.641 221.62C237.641 220.433 237.841 219.433 238.241 218.62C238.641 217.793 239.214 217.167 239.961 216.74C240.708 216.3 241.594 216.08 242.621 216.08C243.594 216.08 244.448 216.3 245.181 216.74C245.928 217.167 246.508 217.793 246.921 218.62C247.348 219.433 247.561 220.433 247.561 221.62ZM239.461 221.62C239.461 222.46 239.568 223.193 239.781 223.82C240.008 224.433 240.354 224.907 240.821 225.24C241.288 225.573 241.881 225.74 242.601 225.74C243.321 225.74 243.914 225.573 244.381 225.24C244.848 224.907 245.188 224.433 245.401 223.82C245.628 223.193 245.741 222.46 245.741 221.62C245.741 220.767 245.628 220.04 245.401 219.44C245.174 218.84 244.828 218.38 244.361 218.06C243.908 217.727 243.314 217.56 242.581 217.56C241.488 217.56 240.694 217.92 240.201 218.64C239.708 219.36 239.461 220.353 239.461 221.62ZM253.93 225.76C254.197 225.76 254.47 225.74 254.75 225.7C255.03 225.647 255.257 225.593 255.43 225.54V226.88C255.244 226.973 254.977 227.047 254.63 227.1C254.284 227.167 253.95 227.2 253.63 227.2C253.07 227.2 252.55 227.107 252.07 226.92C251.604 226.72 251.224 226.38 250.93 225.9C250.637 225.42 250.49 224.747 250.49 223.88V217.64H248.97V216.8L250.51 216.1L251.21 213.82H252.25V216.28H255.35V217.64H252.25V223.84C252.25 224.493 252.404 224.98 252.71 225.3C253.03 225.607 253.437 225.76 253.93 225.76ZM266.897 221.62C266.897 222.513 266.777 223.307 266.537 224C266.31 224.68 265.977 225.26 265.537 225.74C265.11 226.22 264.584 226.587 263.957 226.84C263.344 227.08 262.657 227.2 261.897 227.2C261.19 227.2 260.537 227.08 259.937 226.84C259.337 226.587 258.817 226.22 258.377 225.74C257.937 225.26 257.59 224.68 257.337 224C257.097 223.307 256.977 222.513 256.977 221.62C256.977 220.433 257.177 219.433 257.577 218.62C257.977 217.793 258.55 217.167 259.297 216.74C260.044 216.3 260.93 216.08 261.957 216.08C262.93 216.08 263.784 216.3 264.517 216.74C265.264 217.167 265.844 217.793 266.257 218.62C266.684 219.433 266.897 220.433 266.897 221.62ZM258.797 221.62C258.797 222.46 258.904 223.193 259.117 223.82C259.344 224.433 259.69 224.907 260.157 225.24C260.624 225.573 261.217 225.74 261.937 225.74C262.657 225.74 263.25 225.573 263.717 225.24C264.184 224.907 264.524 224.433 264.737 223.82C264.964 223.193 265.077 222.46 265.077 221.62C265.077 220.767 264.964 220.04 264.737 219.44C264.51 218.84 264.164 218.38 263.697 218.06C263.244 217.727 262.65 217.56 261.917 217.56C260.824 217.56 260.03 217.92 259.537 218.64C259.044 219.36 258.797 220.353 258.797 221.62ZM283.883 227H281.783L274.143 215.14H274.063C274.076 215.38 274.09 215.647 274.103 215.94C274.13 216.233 274.15 216.553 274.163 216.9C274.176 217.233 274.19 217.58 274.203 217.94C274.216 218.3 274.223 218.66 274.223 219.02V227H272.563V212.72H274.643L282.263 224.54H282.343C282.33 224.38 282.316 224.16 282.303 223.88C282.29 223.587 282.276 223.267 282.263 222.92C282.25 222.56 282.236 222.193 282.223 221.82C282.21 221.447 282.203 221.1 282.203 220.78V212.72H283.883V227ZM291.578 216.1C292.885 216.1 293.852 216.387 294.478 216.96C295.105 217.533 295.418 218.447 295.418 219.7V227H294.138L293.798 225.48H293.718C293.412 225.867 293.092 226.193 292.758 226.46C292.438 226.713 292.065 226.9 291.638 227.02C291.225 227.14 290.718 227.2 290.118 227.2C289.478 227.2 288.898 227.087 288.378 226.86C287.872 226.633 287.472 226.287 287.178 225.82C286.885 225.34 286.738 224.74 286.738 224.02C286.738 222.953 287.158 222.133 287.998 221.56C288.838 220.973 290.132 220.653 291.878 220.6L293.698 220.54V219.9C293.698 219.007 293.505 218.387 293.118 218.04C292.732 217.693 292.185 217.52 291.478 217.52C290.918 217.52 290.385 217.607 289.878 217.78C289.372 217.94 288.898 218.127 288.458 218.34L287.918 217.02C288.385 216.767 288.938 216.553 289.578 216.38C290.218 216.193 290.885 216.1 291.578 216.1ZM292.098 221.82C290.765 221.873 289.838 222.087 289.318 222.46C288.812 222.833 288.558 223.36 288.558 224.04C288.558 224.64 288.738 225.08 289.098 225.36C289.472 225.64 289.945 225.78 290.518 225.78C291.425 225.78 292.178 225.533 292.778 225.04C293.378 224.533 293.678 223.76 293.678 222.72V221.76L292.098 221.82ZM305.709 224.04C305.709 224.733 305.536 225.313 305.189 225.78C304.843 226.247 304.349 226.6 303.709 226.84C303.069 227.08 302.309 227.2 301.429 227.2C300.683 227.2 300.036 227.14 299.489 227.02C298.956 226.9 298.483 226.733 298.069 226.52V224.92C298.496 225.133 299.009 225.333 299.609 225.52C300.223 225.693 300.843 225.78 301.469 225.78C302.363 225.78 303.009 225.64 303.409 225.36C303.809 225.067 304.009 224.68 304.009 224.2C304.009 223.933 303.936 223.693 303.789 223.48C303.643 223.267 303.376 223.053 302.989 222.84C302.616 222.627 302.076 222.387 301.369 222.12C300.676 221.853 300.083 221.587 299.589 221.32C299.096 221.053 298.716 220.733 298.449 220.36C298.183 219.987 298.049 219.507 298.049 218.92C298.049 218.013 298.416 217.313 299.149 216.82C299.896 216.327 300.869 216.08 302.069 216.08C302.723 216.08 303.329 216.147 303.889 216.28C304.463 216.4 304.996 216.573 305.489 216.8L304.889 218.2C304.596 218.067 304.283 217.953 303.949 217.86C303.629 217.753 303.303 217.673 302.969 217.62C302.636 217.553 302.296 217.52 301.949 217.52C301.229 217.52 300.676 217.64 300.289 217.88C299.916 218.107 299.729 218.42 299.729 218.82C299.729 219.113 299.816 219.367 299.989 219.58C300.163 219.78 300.449 219.98 300.849 220.18C301.263 220.367 301.809 220.593 302.489 220.86C303.169 221.113 303.749 221.373 304.229 221.64C304.709 221.907 305.076 222.233 305.329 222.62C305.583 222.993 305.709 223.467 305.709 224.04ZM311.88 225.76C312.146 225.76 312.42 225.74 312.7 225.7C312.98 225.647 313.206 225.593 313.38 225.54V226.88C313.193 226.973 312.926 227.047 312.58 227.1C312.233 227.167 311.9 227.2 311.58 227.2C311.02 227.2 310.5 227.107 310.02 226.92C309.553 226.72 309.173 226.38 308.88 225.9C308.586 225.42 308.44 224.747 308.44 223.88V217.64H306.92V216.8L308.46 216.1L309.16 213.82H310.2V216.28H313.3V217.64H310.2V223.84C310.2 224.493 310.353 224.98 310.66 225.3C310.98 225.607 311.386 225.76 311.88 225.76ZM319.586 216.1C320.893 216.1 321.86 216.387 322.486 216.96C323.113 217.533 323.426 218.447 323.426 219.7V227H322.146L321.806 225.48H321.726C321.42 225.867 321.1 226.193 320.766 226.46C320.446 226.713 320.073 226.9 319.646 227.02C319.233 227.14 318.726 227.2 318.126 227.2C317.486 227.2 316.906 227.087 316.386 226.86C315.88 226.633 315.48 226.287 315.186 225.82C314.893 225.34 314.746 224.74 314.746 224.02C314.746 222.953 315.166 222.133 316.006 221.56C316.846 220.973 318.14 220.653 319.886 220.6L321.706 220.54V219.9C321.706 219.007 321.513 218.387 321.126 218.04C320.74 217.693 320.193 217.52 319.486 217.52C318.926 217.52 318.393 217.607 317.886 217.78C317.38 217.94 316.906 218.127 316.466 218.34L315.926 217.02C316.393 216.767 316.946 216.553 317.586 216.38C318.226 216.193 318.893 216.1 319.586 216.1ZM320.106 221.82C318.773 221.873 317.846 222.087 317.326 222.46C316.82 222.833 316.566 223.36 316.566 224.04C316.566 224.64 316.746 225.08 317.106 225.36C317.48 225.64 317.953 225.78 318.526 225.78C319.433 225.78 320.186 225.533 320.786 225.04C321.386 224.533 321.686 223.76 321.686 222.72V221.76L320.106 221.82ZM328.497 227H326.737V211.8H328.497V227ZM333.653 216.28V227H331.893V216.28H333.653ZM332.793 212.26C333.06 212.26 333.293 212.353 333.493 212.54C333.707 212.713 333.813 212.993 333.813 213.38C333.813 213.753 333.707 214.033 333.493 214.22C333.293 214.407 333.06 214.5 332.793 214.5C332.5 214.5 332.253 214.407 332.053 214.22C331.853 214.033 331.753 213.753 331.753 213.38C331.753 212.993 331.853 212.713 332.053 212.54C332.253 212.353 332.5 212.26 332.793 212.26ZM344.19 227.22C344.19 226.98 344.196 226.7 344.21 226.38C344.223 226.06 344.25 225.787 344.29 225.56H344.17C343.863 226.013 343.436 226.4 342.89 226.72C342.356 227.04 341.663 227.2 340.81 227.2C339.516 227.2 338.463 226.74 337.65 225.82C336.85 224.887 336.45 223.5 336.45 221.66C336.45 220.433 336.636 219.407 337.01 218.58C337.383 217.753 337.903 217.133 338.57 216.72C339.236 216.293 340.003 216.08 340.87 216.08C341.71 216.08 342.396 216.24 342.93 216.56C343.463 216.88 343.89 217.273 344.21 217.74H344.29L344.55 216.28H345.95V231.8H344.19V227.22ZM341.15 225.74C341.883 225.74 342.47 225.607 342.91 225.34C343.363 225.073 343.69 224.667 343.89 224.12C344.09 223.56 344.196 222.867 344.21 222.04V221.68C344.21 220.32 343.983 219.293 343.53 218.6C343.076 217.893 342.27 217.54 341.11 217.54C340.15 217.54 339.436 217.92 338.97 218.68C338.503 219.427 338.27 220.433 338.27 221.7C338.27 222.967 338.503 223.96 338.97 224.68C339.45 225.387 340.176 225.74 341.15 225.74ZM268.058 266.52C267.764 266.227 267.484 265.96 267.218 265.72C266.938 265.48 266.664 265.253 266.398 265.04V264.86C266.531 264.673 266.718 264.447 266.958 264.18C267.184 263.9 267.411 263.64 267.638 263.4C267.864 263.16 268.031 263.007 268.138 262.94H268.318C268.638 263.14 268.918 263.333 269.158 263.52C269.384 263.693 269.558 263.873 269.678 264.06C269.824 263.873 269.991 263.68 270.178 263.48C270.364 263.267 270.544 263.08 270.718 262.92C270.891 262.747 271.018 262.633 271.098 262.58H271.258C271.791 262.913 272.184 263.213 272.438 263.48C272.704 263.733 272.838 263.993 272.838 264.26C272.838 264.767 272.304 265.4 271.238 266.16H271.058C270.831 265.933 270.611 265.727 270.398 265.54C270.184 265.34 269.984 265.16 269.798 265C269.584 265.427 269.064 265.933 268.238 266.52H268.058ZM264.603 277.34C263.55 277.34 262.59 277.24 261.723 277.04C260.856 276.853 260.163 276.507 259.643 276C259.123 275.48 258.863 274.747 258.863 273.8C258.863 272.987 259.03 272.013 259.363 270.88L259.963 270.98C259.95 271.073 259.943 271.173 259.943 271.28C259.943 271.387 259.943 271.5 259.943 271.62C259.943 272.327 260.136 272.86 260.523 273.22C260.923 273.567 261.556 273.793 262.423 273.9C263.303 274.007 264.47 274.06 265.923 274.06C266.816 274.06 267.743 274.007 268.703 273.9C269.676 273.793 270.636 273.647 271.583 273.46C272.53 273.26 273.416 273.027 274.243 272.76C275.083 272.493 275.816 272.2 276.443 271.88C277.163 271.507 277.723 271.147 278.123 270.8C278.523 270.453 278.83 270.113 279.043 269.78C279.27 269.433 279.47 269.087 279.643 268.74L280.043 268.86C279.883 269.553 279.643 270.26 279.323 270.98C279.003 271.687 278.636 272.333 278.223 272.92C277.783 273.533 277.183 274.08 276.423 274.56C275.676 275.04 274.823 275.46 273.863 275.82C272.916 276.167 271.91 276.453 270.843 276.68C269.79 276.907 268.73 277.073 267.663 277.18C266.596 277.287 265.576 277.34 264.603 277.34ZM295.279 283.74C294.999 283.447 294.719 283.173 294.439 282.92C294.159 282.68 293.886 282.453 293.619 282.24V282.08C293.739 281.907 293.919 281.68 294.159 281.4C294.386 281.133 294.619 280.873 294.859 280.62C295.086 280.38 295.253 280.227 295.359 280.16H295.539C296.059 280.493 296.446 280.787 296.699 281.04C296.966 281.307 297.099 281.573 297.099 281.84C297.099 282.32 296.546 282.953 295.439 283.74H295.279ZM290.736 277.34C289.683 277.34 288.723 277.24 287.856 277.04C286.989 276.853 286.296 276.507 285.776 276C285.256 275.48 284.996 274.747 284.996 273.8C284.996 272.987 285.163 272.013 285.496 270.88L286.096 270.98C286.083 271.073 286.076 271.173 286.076 271.28C286.076 271.387 286.076 271.5 286.076 271.62C286.076 272.327 286.269 272.86 286.656 273.22C287.056 273.567 287.689 273.793 288.556 273.9C289.436 274.007 290.603 274.06 292.056 274.06C292.949 274.06 293.876 274.007 294.836 273.9C295.809 273.793 296.769 273.647 297.716 273.46C298.663 273.26 299.549 273.027 300.376 272.76C301.216 272.493 301.949 272.2 302.576 271.88C303.296 271.507 303.856 271.147 304.256 270.8C304.656 270.453 304.963 270.113 305.176 269.78C305.403 269.433 305.603 269.087 305.776 268.74L306.176 268.86C306.016 269.553 305.776 270.26 305.456 270.98C305.136 271.687 304.769 272.333 304.356 272.92C303.916 273.533 303.316 274.08 302.556 274.56C301.809 275.04 300.956 275.46 299.996 275.82C299.049 276.167 298.043 276.453 296.976 276.68C295.923 276.907 294.863 277.073 293.796 277.18C292.729 277.287 291.709 277.34 290.736 277.34ZM312.429 274.98L311.989 274.88C312.055 274.573 312.122 274.087 312.189 273.42C312.255 272.753 312.309 271.94 312.349 270.98L312.529 266.2C312.555 265.6 312.582 265.073 312.609 264.62C312.649 264.167 312.722 263.72 312.829 263.28C312.935 262.827 313.095 262.313 313.309 261.74C313.535 261.167 313.835 260.46 314.209 259.62L314.629 259.78C314.522 260.047 314.429 260.52 314.349 261.2C314.282 261.867 314.215 262.74 314.149 263.82L313.809 269.46C313.755 270.313 313.615 271.2 313.389 272.12C313.175 273.04 312.855 273.993 312.429 274.98Z" fill="black"/>
</svg>
